<svg width="25" height="25" viewBox="0 0 25 25" fill="none" xmlns="http://www.w3.org/2000/svg">
<path fill-rule="evenodd" clip-rule="evenodd" d="M6.58578 6.58579C7.36683 5.80474 8.63316 5.80474 9.41421 6.58578L12 9.17158L14.5858 6.58579C15.3669 5.80474 16.6332 5.80474 17.4142 6.58579C18.1953 7.36683 18.1953 8.63317 17.4142 9.41421L14.8284 12L17.4142 14.5858C18.1953 15.3668 18.1953 16.6332 17.4142 17.4142C16.6332 18.1953 15.3669 18.1953 14.5858 17.4142L12 14.8284L9.41423 17.4142C8.63318 18.1953 7.36685 18.1953 6.5858 17.4142C5.80475 16.6332 5.80475 15.3668 6.5858 14.5858L9.17159 12L6.58579 9.41422C5.80474 8.63317 5.80474 7.36684 6.58578 6.58579Z" fill="white"/>
</svg>
