<svg width="40" height="40" viewBox="0 0 40 40" fill="none" xmlns="http://www.w3.org/2000/svg">
<path fill-rule="evenodd" clip-rule="evenodd" d="M0 20C0 8.9543 8.9543 0 20 0C31.0457 0 40 8.9543 40 20C40 31.0457 31.0457 40 20 40C8.9543 40 0 31.0457 0 20ZM20 3.33333C10.7953 3.33333 3.33333 10.7953 3.33333 20C3.33333 25.0966 5.621 29.6589 9.22551 32.7161C12.0598 30.1113 15.8446 28.5185 19.9997 28.5185C24.155 28.5185 27.9399 30.1114 30.7742 32.7163C34.3789 29.6592 36.6667 25.0968 36.6667 20C36.6667 10.7953 29.2047 3.33333 20 3.33333ZM19.9997 31.8518C23.0059 31.8518 25.7648 32.9038 27.9308 34.6624C25.5724 35.9408 22.871 36.6667 20 36.6667C17.1289 36.6667 14.4274 35.9407 12.0689 34.6623C14.2348 32.9037 16.9937 31.8518 19.9997 31.8518Z" fill="#2E271C"/>
<path fill-rule="evenodd" clip-rule="evenodd" d="M20 10.1851C15.7045 10.1851 12.2222 13.6673 12.2222 17.9629C12.2222 22.2584 15.7045 25.7407 20 25.7407C24.2955 25.7407 27.7778 22.2584 27.7778 17.9629C27.7778 13.6673 24.2955 10.1851 20 10.1851ZM20 13.5185C17.5454 13.5185 15.5556 15.5083 15.5556 17.9629C15.5556 20.4175 17.5454 22.4073 20 22.4073C22.4546 22.4073 24.4444 20.4175 24.4444 17.9629C24.4444 15.5083 22.4546 13.5185 20 13.5185Z" fill="#2E271C"/>
</svg>
