<svg width="24" height="24" viewBox="0 0 24 24" fill="none" xmlns="http://www.w3.org/2000/svg">
<g clip-path="url(#clip0_134_47)">
<path d="M18.3032 11.2494L13.2709 16.2817V18.2917C13.2709 18.7372 12.7324 18.9603 12.4174 18.6453L9.5 15.7279L3.72528 20.3983L8.5 14.7279L5.07615 11.3041C4.76117 10.9891 4.98425 10.4505 5.4297 10.4505L7.43979 10.4505L12.472 5.41827L11.6191 4.56537C11.4239 4.37011 11.4239 4.05353 11.6191 3.85827L12.7217 2.7557C12.917 2.56044 13.2335 2.56044 13.4288 2.7557L20.9657 10.2926C21.161 10.4879 21.161 10.8045 20.9657 10.9998L19.8632 12.1023C19.6679 12.2976 19.3513 12.2976 19.1561 12.1023L18.3032 11.2494Z" fill="#2E271C"/>
<path d="M12.472 5.41827L18.3032 11.2494M12.472 5.41827L7.43979 10.4505M12.472 5.41827L11.6191 4.56537C11.4239 4.37011 11.4239 4.05353 11.6191 3.85827L12.7217 2.7557C12.917 2.56044 13.2335 2.56044 13.4288 2.7557L20.9657 10.2926C21.161 10.4879 21.161 10.8045 20.9657 10.9998L19.8632 12.1023C19.6679 12.2976 19.3513 12.2976 19.1561 12.1023L18.3032 11.2494M18.3032 11.2494L13.2709 16.2817M13.2709 16.2817L7.43979 10.4505M13.2709 16.2817L13.2709 18.2917C13.2709 18.7372 12.7324 18.9603 12.4174 18.6453L9.5 15.7279M7.43979 10.4505H5.4297C4.98425 10.4505 4.76117 10.9891 5.07615 11.3041L8.5 14.7279M8.94785 15.1757L3.72528 20.3983M8.94785 15.1757L8.5 14.7279M8.94785 15.1757L9.5 15.7279M3.72528 20.3983L8.5 14.7279M3.72528 20.3983L9.5 15.7279" stroke="#2E271C" stroke-linecap="round" stroke-linejoin="round"/>
</g>
<defs>
<clipPath id="clip0_134_47">
<rect width="24" height="24" fill="white"/>
</clipPath>
</defs>
</svg>
