<svg width="128" height="128" viewBox="0 0 128 128" fill="none" xmlns="http://www.w3.org/2000/svg">
<circle cx="64" cy="64" r="64" fill="#D4EDBF"/>
<path d="M44.157 64.503C42.9037 64.503 41.8227 64.08 40.914 63.234C40.0367 62.3567 39.598 61.2443 39.598 59.897C39.598 58.5497 40.0367 57.4687 40.914 56.654C41.8227 55.808 42.9037 55.385 44.157 55.385C45.4417 55.385 46.5227 55.808 47.4 56.654C48.2773 57.4687 48.716 58.5497 48.716 59.897C48.716 61.2443 48.2773 62.3567 47.4 63.234C46.5227 64.08 45.4417 64.503 44.157 64.503ZM44.157 81.376C42.9037 81.376 41.8227 80.953 40.914 80.107C40.0367 79.2297 39.598 78.1173 39.598 76.77C39.598 75.4227 40.0367 74.3417 40.914 73.527C41.8227 72.681 42.9037 72.258 44.157 72.258C45.4417 72.258 46.5227 72.681 47.4 73.527C48.2773 74.3417 48.716 75.4227 48.716 76.77C48.716 78.1173 48.2773 79.2297 47.4 80.107C46.5227 80.953 45.4417 81.376 44.157 81.376ZM54.2018 81V48.1H69.1478C72.7198 48.1 75.8688 48.7893 78.5948 50.168C81.3208 51.5153 83.4514 53.411 84.9868 55.855C86.5221 58.299 87.2898 61.1973 87.2898 64.55C87.2898 67.8713 86.5221 70.7697 84.9868 73.245C83.4514 75.689 81.3208 77.6003 78.5948 78.979C75.8688 80.3263 72.7198 81 69.1478 81H54.2018ZM61.8158 74.749H68.7718C70.9651 74.749 72.8608 74.3417 74.4588 73.527C76.0881 72.681 77.3414 71.4903 78.2188 69.955C79.1274 68.4197 79.5818 66.618 79.5818 64.55C79.5818 62.4507 79.1274 60.649 78.2188 59.145C77.3414 57.6097 76.0881 56.4347 74.4588 55.62C72.8608 54.774 70.9651 54.351 68.7718 54.351H61.8158V74.749Z" fill="#2E271C"/>
</svg>
