<svg width="128" height="128" viewBox="0 0 128 128" fill="none" xmlns="http://www.w3.org/2000/svg">
<path fill-rule="evenodd" clip-rule="evenodd" d="M64 128C99.3462 128 128 99.3462 128 64C128 28.6538 99.3462 0 64 0C28.6538 0 0 28.6538 0 64C0 99.3462 28.6538 128 64 128ZM54.2018 48.1V81H69.1478C72.7198 81 75.8688 80.3263 78.5948 78.979C81.3208 77.6003 83.4515 75.689 84.9868 73.245C86.5221 70.7697 87.2898 67.8713 87.2898 64.55C87.2898 61.1973 86.5221 58.299 84.9868 55.855C83.4515 53.411 81.3208 51.5153 78.5948 50.168C75.8688 48.7893 72.7198 48.1 69.1478 48.1H54.2018ZM61.8158 74.749H68.7718C70.9651 74.749 72.8608 74.3417 74.4588 73.527C76.0881 72.681 77.3414 71.4903 78.2188 69.955C79.1274 68.4197 79.5818 66.618 79.5818 64.55C79.5818 62.4507 79.1274 60.649 78.2188 59.145C77.3414 57.6097 76.0881 56.4347 74.4588 55.62C72.8608 54.774 70.9651 54.351 68.7718 54.351H61.8158V74.749ZM44.157 64.503C42.9037 64.503 41.8227 64.08 40.914 63.234C40.0367 62.3567 39.598 61.2443 39.598 59.897C39.598 58.5497 40.0367 57.4687 40.914 56.654C41.8227 55.808 42.9037 55.385 44.157 55.385C45.4417 55.385 46.5227 55.808 47.4 56.654C48.2773 57.4687 48.716 58.5497 48.716 59.897C48.716 61.2443 48.2773 62.3567 47.4 63.234C46.5227 64.08 45.4417 64.503 44.157 64.503ZM40.914 80.107C41.8227 80.953 42.9037 81.376 44.157 81.376C45.4417 81.376 46.5227 80.953 47.4 80.107C48.2773 79.2297 48.716 78.1173 48.716 76.77C48.716 75.4227 48.2773 74.3417 47.4 73.527C46.5227 72.681 45.4417 72.258 44.157 72.258C42.9037 72.258 41.8227 72.681 40.914 73.527C40.0367 74.3417 39.598 75.4227 39.598 76.77C39.598 78.1173 40.0367 79.2297 40.914 80.107Z" fill="#2E271C"/>
</svg>
