<svg width="512" height="512" viewBox="0 0 512 512" fill="none" xmlns="http://www.w3.org/2000/svg">
<g id="favicon-maskable">
<rect width="512" height="512" fill="#D4EDBF"/>
<g id=":D">
<path d="M176.628 258.012C171.615 258.012 167.291 256.32 163.656 252.936C160.147 249.427 158.392 244.977 158.392 239.588C158.392 234.199 160.147 229.875 163.656 226.616C167.291 223.232 171.615 221.54 176.628 221.54C181.767 221.54 186.091 223.232 189.6 226.616C193.109 229.875 194.864 234.199 194.864 239.588C194.864 244.977 193.109 249.427 189.6 252.936C186.091 256.32 181.767 258.012 176.628 258.012ZM176.628 325.504C171.615 325.504 167.291 323.812 163.656 320.428C160.147 316.919 158.392 312.469 158.392 307.08C158.392 301.691 160.147 297.367 163.656 294.108C167.291 290.724 171.615 289.032 176.628 289.032C181.767 289.032 186.091 290.724 189.6 294.108C193.109 297.367 194.864 301.691 194.864 307.08C194.864 312.469 193.109 316.919 189.6 320.428C186.091 323.812 181.767 325.504 176.628 325.504Z" fill="#2E271C"/>
<path d="M216.807 324V192.4H276.591C290.879 192.4 303.475 195.157 314.379 200.672C325.283 206.061 333.806 213.644 339.947 223.42C346.089 233.196 349.159 244.789 349.159 258.2C349.159 271.485 346.089 283.079 339.947 292.98C333.806 302.756 325.283 310.401 314.379 315.916C303.475 321.305 290.879 324 276.591 324H216.807ZM247.263 298.996H275.087C283.861 298.996 291.443 297.367 297.835 294.108C304.353 290.724 309.366 285.961 312.875 279.82C316.51 273.679 318.327 266.472 318.327 258.2C318.327 249.803 316.51 242.596 312.875 236.58C309.366 230.439 304.353 225.739 297.835 222.48C291.443 219.096 283.861 217.404 275.087 217.404H247.263V298.996Z" fill="#2E271C"/>
</g>
</g>
</svg>
