<svg width="24" height="24" viewBox="0 0 24 24" fill="none" xmlns="http://www.w3.org/2000/svg">
<path fill-rule="evenodd" clip-rule="evenodd" d="M12 2C6.47715 2 2 6.47715 2 12C2 15.0577 3.37114 17.7941 5.53567 19.63C6.06089 20.0755 6.63249 20.4675 7.24204 20.798C8.65593 21.5644 10.2756 22 12 22C13.7243 22 15.3439 21.5644 16.7578 20.7981C17.3673 20.4677 17.9389 20.0756 18.4642 19.6301C20.6288 17.7943 22 15.0578 22 12C22 6.47715 17.5228 2 12 2ZM0 12C0 5.37258 5.37258 0 12 0C18.6274 0 24 5.37258 24 12C24 15.6699 22.3513 18.9558 19.7578 21.1554C19.1282 21.6894 18.4426 22.1597 17.7108 22.5564C16.0117 23.4774 14.0654 24 12 24C9.93454 24 7.98818 23.4773 6.28895 22.5563L6.76549 21.6771L6.28894 22.5563C5.55721 22.1596 4.8716 21.6893 4.242 21.1553C1.64858 18.9557 0 15.6698 0 12ZM12 6C12.5523 6 13 6.44772 13 7V11H17C17.5523 11 18 11.4477 18 12C18 12.5523 17.5523 13 17 13H13V17C13 17.5523 12.5523 18 12 18C11.4477 18 11 17.5523 11 17V13H7C6.44772 13 6 12.5523 6 12C6 11.4477 6.44772 11 7 11H11V7C11 6.44772 11.4477 6 12 6Z" fill="#2E271C"/>
</svg>
