<svg width="24" height="24" viewBox="0 0 24 24" fill="none" xmlns="http://www.w3.org/2000/svg">
<path d="M10.1282 0.730778L1.03374 9.30296C0.371848 9.92684 0 10.773 0 11.6553V22.3366C0 23.2553 0.790086 24 1.76471 24H7.23529C8.20991 24 9 23.2553 9 22.3366V16.7644C9 15.8458 9.79009 15.1011 10.7647 15.1011H13.2353C14.2099 15.1011 15 15.8458 15 16.7644V22.3366C15 23.2553 15.7901 24 16.7647 24H22.2353C23.2099 24 24 23.2553 24 22.3366V11.6553C24 10.773 23.6282 9.92684 22.9663 9.30296L13.8718 0.730777C12.838 -0.243593 11.162 -0.243592 10.1282 0.730778Z" fill="#2E271C"/>
</svg>
