<svg width="24" height="24" viewBox="0 0 24 24" fill="none" xmlns="http://www.w3.org/2000/svg">
<path fill-rule="evenodd" clip-rule="evenodd" d="M11.5294 2.10081L2.43494 10.673C2.15206 10.9396 2 11.2937 2 11.6553V22.08H7V16.7644C7 14.7524 8.72023 13.1811 10.7647 13.1811H13.2353C15.2798 13.1811 17 14.7524 17 16.7644V22.08H22V11.6553C22 11.2937 21.8479 10.9396 21.5651 10.673L12.4706 2.1008C12.2148 1.85973 11.7852 1.85973 11.5294 2.10081ZM1.03374 9.30296L10.1282 0.730778C11.162 -0.243592 12.838 -0.243593 13.8718 0.730777L22.9663 9.30296C23.6282 9.92684 24 10.773 24 11.6553V22.3366C24 23.2553 23.2099 24 22.2353 24H16.7647C15.7901 24 15 23.2553 15 22.3366V16.7644C15 15.8458 14.2099 15.1011 13.2353 15.1011H10.7647C9.79009 15.1011 9 15.8458 9 16.7644V22.3366C9 23.2553 8.20991 24 7.23529 24H1.76471C0.790086 24 0 23.2553 0 22.3366V11.6553C0 10.773 0.371848 9.92684 1.03374 9.30296Z" fill="#2E271C"/>
</svg>
