<svg width="24" height="24" viewBox="0 0 24 24" fill="none" xmlns="http://www.w3.org/2000/svg">
<path fill-rule="evenodd" clip-rule="evenodd" d="M2 12C2 6.47715 6.47715 2 12 2C17.5228 2 22 6.47715 22 12C22 15.0578 20.6288 17.7943 18.4642 19.6301C17.9389 20.0756 17.3673 20.4677 16.7578 20.7981C15.3439 21.5644 13.7243 22 12 22C10.2756 22 8.65593 21.5644 7.24204 20.798C6.63249 20.4675 6.06089 20.0755 5.53567 19.63C3.37114 17.7941 2 15.0577 2 12ZM12 4.4C12.5523 4.4 13 4.84772 13 5.4V11.6379L15.5182 14.6598C15.8718 15.0841 15.8145 15.7147 15.3902 16.0682C14.9659 16.4218 14.3353 16.3645 13.9818 15.9402L11.2318 12.6402C11.082 12.4605 11 12.2339 11 12V5.4C11 4.84772 11.4477 4.4 12 4.4Z" fill="#2E271C"/>
<path fill-rule="evenodd" clip-rule="evenodd" d="M2 12C2 6.47715 6.47715 2 12 2C17.5228 2 22 6.47715 22 12C22 15.0578 20.6288 17.7943 18.4642 19.6301C17.9389 20.0756 17.3673 20.4677 16.7578 20.7981C15.3439 21.5644 13.7243 22 12 22C10.2756 22 8.65593 21.5644 7.24204 20.798C6.63249 20.4675 6.06089 20.0755 5.53567 19.63C3.37114 17.7941 2 15.0577 2 12ZM12 0C5.37258 0 0 5.37258 0 12C0 15.6698 1.64858 18.9557 4.242 21.1553C4.8716 21.6893 5.55721 22.1596 6.28894 22.5563C7.98818 23.4773 9.93454 24 12 24C14.0654 24 16.0117 23.4774 17.7108 22.5564C18.4426 22.1597 19.1282 21.6894 19.7578 21.1554C22.3513 18.9558 24 15.6699 24 12C24 5.37258 18.6274 0 12 0Z" fill="#2E271C"/>
</svg>
