<svg width="24" height="25" viewBox="0 0 24 25" fill="none" xmlns="http://www.w3.org/2000/svg">
<path fill-rule="evenodd" clip-rule="evenodd" d="M12 2.5C6.47715 2.5 2 6.97715 2 12.5C2 15.5577 3.37114 18.2941 5.53567 20.13C6.06089 20.5755 6.63249 20.9675 7.24204 21.298C8.65593 22.0644 10.2756 22.5 12 22.5C13.7243 22.5 15.3439 22.0644 16.7578 21.2981C17.3673 20.9677 17.9389 20.5756 18.4642 20.1301C20.6288 18.2943 22 15.5578 22 12.5C22 6.97715 17.5228 2.5 12 2.5ZM0 12.5C0 5.87258 5.37258 0.5 12 0.5C18.6274 0.5 24 5.87258 24 12.5C24 16.1699 22.3513 19.4558 19.7578 21.6554C19.1282 22.1894 18.4426 22.6597 17.7108 23.0564C16.0117 23.9774 14.0654 24.5 12 24.5C9.93454 24.5 7.98818 23.9773 6.28894 23.0563C5.55721 22.6596 4.8716 22.1893 4.242 21.6553C1.64858 19.4557 0 16.1698 0 12.5ZM12 4.9C12.5523 4.9 13 5.34772 13 5.9V12.1379L15.5182 15.1598C15.8718 15.5841 15.8145 16.2147 15.3902 16.5682C14.9659 16.9218 14.3353 16.8645 13.9818 16.4402L11.2318 13.1402C11.082 12.9605 11 12.7339 11 12.5V5.9C11 5.34772 11.4477 4.9 12 4.9Z" fill="#2E271C"/>
</svg>
