<svg width="32" height="32" viewBox="0 0 32 32" fill="none" xmlns="http://www.w3.org/2000/svg">
<path d="M0 16C0 7.16344 7.16344 0 16 0C24.8366 0 32 7.16344 32 16C32 24.8366 24.8366 32 16 32C7.16344 32 0 24.8366 0 16Z" fill="#4880E9"/>
<path fill-rule="evenodd" clip-rule="evenodd" d="M16 7C16.9205 7 17.6667 7.72002 17.6667 8.60821V12.8609L18.122 12.396C18.7543 11.7505 19.8091 11.7217 20.4781 12.3318C21.1471 12.9418 21.1769 13.9597 20.5447 14.6052L17.2113 18.0086C16.8965 18.3301 16.4584 18.5122 16 18.5122C15.5416 18.5122 15.1035 18.3301 14.7887 18.0086L11.4554 14.6052C10.8231 13.9597 10.8529 12.9418 11.5219 12.3318C12.1909 11.7217 13.2457 11.7505 13.878 12.396L14.3333 12.8609V8.60821C14.3333 7.72002 15.0795 7 16 7ZM7.66667 10.9352C8.58714 10.9352 9.33333 11.6552 9.33333 12.5434V20.2011C9.33333 21.0629 10.0669 21.7836 11 21.7836H21C21.9331 21.7836 22.6667 21.0629 22.6667 20.2011V12.5434C22.6667 11.6552 23.4129 10.9352 24.3333 10.9352C25.2538 10.9352 26 11.6552 26 12.5434V20.2011C26 22.8636 23.7488 25 21 25H11C8.25122 25 6 22.8636 6 20.2011V12.5434C6 11.6552 6.74619 10.9352 7.66667 10.9352Z" fill="white"/>
</svg>
