<svg width="32" height="32" viewBox="0 0 32 32" fill="none" xmlns="http://www.w3.org/2000/svg">
<path fill-rule="evenodd" clip-rule="evenodd" d="M0 16C0 7.16344 7.16344 0 16 0C24.8366 0 32 7.16344 32 16C32 24.8366 24.8366 32 16 32C7.16344 32 0 24.8366 0 16Z" fill="#658023"/>
<path d="M21.6064 15.4699L17.0334 20.043L17.0334 21.7595C17.0334 22.205 16.4948 22.4281 16.1798 22.1131L13.6065 19.5398L8.35865 23.784L12.6977 18.631L9.66414 15.5974C9.34916 15.2824 9.57224 14.7439 10.0177 14.7439H11.7342L16.3073 10.1708L15.5645 9.42796C15.3692 9.2327 15.3692 8.91612 15.5645 8.72086L16.502 7.78341C16.6972 7.58815 17.0138 7.58815 17.2091 7.78341L23.9938 14.5682C24.1891 14.7634 24.1891 15.08 23.9938 15.2753L23.0564 16.2127C22.8611 16.408 22.5445 16.408 22.3493 16.2127L21.6064 15.4699Z" fill="white"/>
<path fill-rule="evenodd" clip-rule="evenodd" d="M15.7949 7.0763C16.3806 6.49052 17.3304 6.49052 17.9162 7.0763L24.7009 13.8611C25.2867 14.4468 25.2867 15.3966 24.7009 15.9824L23.7635 16.9198C23.1777 17.5056 22.2279 17.5056 21.6422 16.9198L21.6064 16.8841L18.0334 20.4572V21.7595C18.0334 23.0959 16.4176 23.7651 15.4727 22.8202L13.5357 20.8832L8.98749 24.5616C8.58677 24.8857 8.00538 24.8521 7.64458 24.4841C7.28378 24.1161 7.26176 23.5342 7.59371 23.1399L11.3415 18.689L8.95703 16.3045C8.01208 15.3596 8.68134 13.7439 10.0177 13.7439H11.32L14.8931 10.1708L14.8574 10.1351C14.2716 9.54928 14.2716 8.59954 14.8574 8.01375L15.7949 7.0763ZM16.3073 11.585L13.1485 14.7439L17.0334 18.6288L20.1922 15.4699L16.3073 11.585ZM16.0334 20.4572L11.32 15.7439H11.2248L16.0334 20.5524V20.4572ZM16.8555 8.84407L16.6252 9.07441L22.7028 15.1521L22.9332 14.9217L16.8555 8.84407Z" fill="white"/>
</svg>
