<svg width="40" height="40" viewBox="0 0 40 40" fill="none" xmlns="http://www.w3.org/2000/svg">
<path fill-rule="evenodd" clip-rule="evenodd" d="M19.5 6.5C20.8807 6.5 22 7.61929 22 9V15.6109L22.683 14.8882C23.6314 13.8847 25.2137 13.84 26.2171 14.7884C27.2206 15.7367 27.2653 17.319 26.317 18.3225L21.317 23.6131C20.8447 24.1128 20.1875 24.396 19.5 24.396C18.8125 24.396 18.1553 24.1128 17.683 23.6131L12.683 18.3225C11.7347 17.319 11.7794 15.7367 12.7828 14.7884C13.7863 13.84 15.3686 13.8847 16.317 14.8882L17 15.6109V9C17 7.61929 18.1193 6.5 19.5 6.5ZM7 12.6174C8.38071 12.6174 9.5 13.7366 9.5 15.1174V27.0214C9.5 28.3611 10.6003 29.4814 12 29.4814H27C28.3997 29.4814 29.5 28.3611 29.5 27.0214V15.1174C29.5 13.7366 30.6193 12.6174 32 12.6174C33.3807 12.6174 34.5 13.7366 34.5 15.1174V27.0214C34.5 31.1603 31.1232 34.4814 27 34.4814H12C7.87683 34.4814 4.5 31.1603 4.5 27.0214V15.1174C4.5 13.7366 5.61929 12.6174 7 12.6174Z" fill="#3C66B5"/>
</svg>
