<svg width="40" height="40" viewBox="0 0 40 40" fill="none" xmlns="http://www.w3.org/2000/svg">
<g clip-path="url(#clip0_136_44)">
<path d="M30.7211 18.8092L22.2562 27.2741V30.2717C22.2562 31.1626 21.179 31.6088 20.5491 30.9788L15.9129 26.3426L6.199 34.1989L14.2307 24.6605L8.74266 19.1724C8.11269 18.5424 8.55886 17.4653 9.44976 17.4653L12.4473 17.4653L20.9123 9.00037L19.5899 7.67807C19.1994 7.28754 19.1994 6.65438 19.5899 6.26385L21.2199 4.63394C21.6104 4.24342 22.2435 4.24342 22.6341 4.63395L35.0875 17.0874C35.478 17.4779 35.478 18.1111 35.0875 18.5016L33.4576 20.1315C33.0671 20.522 32.4339 20.522 32.0434 20.1315L30.7211 18.8092Z" fill="#783CB5"/>
<path d="M20.9123 9.00037L30.7211 18.8092M20.9123 9.00037L12.4473 17.4653M20.9123 9.00037L19.5899 7.67807C19.1994 7.28754 19.1994 6.65438 19.5899 6.26385L21.2199 4.63394C21.6104 4.24342 22.2435 4.24342 22.6341 4.63395L35.0875 17.0874C35.478 17.4779 35.478 18.1111 35.0875 18.5016L33.4576 20.1315C33.0671 20.522 32.4339 20.522 32.0434 20.1315L30.7211 18.8092M30.7211 18.8092L22.2562 27.2741M22.2562 27.2741L12.4473 17.4653M22.2562 27.2741L22.2562 30.2717C22.2562 31.1626 21.179 31.6088 20.5491 30.9788L15.9129 26.3426M12.4473 17.4653L9.44976 17.4653C8.55886 17.4653 8.11269 18.5424 8.74266 19.1724L14.2307 24.6605M14.9841 25.4138L6.199 34.1989M14.9841 25.4138L14.2307 24.6605M14.9841 25.4138L15.9129 26.3426M6.199 34.1989L14.2307 24.6605M6.199 34.1989L15.9129 26.3426" stroke="#783CB5" stroke-width="3" stroke-linecap="round" stroke-linejoin="round"/>
</g>
<defs>
<clipPath id="clip0_136_44">
<rect width="40" height="40" fill="white"/>
</clipPath>
</defs>
</svg>
