<svg width="40" height="40" viewBox="0 0 40 40" fill="none" xmlns="http://www.w3.org/2000/svg">
<path fill-rule="evenodd" clip-rule="evenodd" d="M20.1592 3.5733C21.1355 2.59698 22.7184 2.59699 23.6947 3.5733L36.1482 16.0267C37.1245 17.0031 37.1245 18.586 36.1482 19.5623L34.7948 20.9157C34.27 20.6801 33.7223 20.4864 33.156 20.3388C32.7853 20.2422 32.4067 20.1653 32.0212 20.1094C31.5246 20.0373 31.0167 20 30.5 20C30.1564 20 29.8167 20.0165 29.4815 20.0488C28.5097 20.1423 27.5766 20.3683 26.7004 20.7086C24.6779 21.4939 22.9592 22.8879 21.7689 24.6656C21.4811 25.0954 21.2241 25.5478 21.0013 26.0193C20.7684 26.5122 20.5728 27.026 20.418 27.5573C20.3281 27.8656 20.2521 28.1797 20.1905 28.4989C20.0697 29.1246 20.0046 29.7701 20.0002 30.43L20 30.5C20 31.1995 20.0684 31.8829 20.1989 32.5441C19.9473 32.425 19.7071 32.2582 19.4884 32.0395L15.8066 28.3578L7.14225 35.3652C6.54117 35.8514 5.66907 35.8011 5.12787 35.2491C4.58668 34.697 4.55365 33.8241 5.05158 33.2328L12.1965 24.7476L7.68198 20.2331C6.10707 18.6582 7.22248 15.9653 9.44974 15.9653L11.826 15.9653L18.7909 9.00039L18.5293 8.73874C17.553 7.76243 17.553 6.17952 18.5293 5.20321L20.1592 3.5733Z" fill="#783CB5"/>
<path fill-rule="evenodd" clip-rule="evenodd" d="M39 30.5C39 35.1944 35.1944 39 30.5 39C25.8056 39 22 35.1944 22 30.5C22 25.8056 25.8056 22 30.5 22C35.1944 22 39 25.8056 39 30.5ZM26.5 30.5C26.5 29.6716 27.1716 29 28 29H33C33.8284 29 34.5 29.6716 34.5 30.5C34.5 31.3284 33.8284 32 33 32H28C27.1716 32 26.5 31.3284 26.5 30.5Z" fill="#783CB5"/>
</svg>
