<svg width="45" height="45" viewBox="0 0 45 45" fill="none" xmlns="http://www.w3.org/2000/svg">
<path d="M12.2582 12.2582C9.5691 14.9473 5.44534 17.6624 2.16254 19.6209C0.0534866 20.8791 0.0534866 24.121 2.16254 25.3792C5.44534 27.3376 9.5691 30.0527 12.2582 32.7418C14.9473 35.4309 17.6624 39.5547 19.6209 42.8375C20.8791 44.9465 24.121 44.9465 25.3792 42.8375C27.3376 39.5547 30.0527 35.4309 32.7418 32.7418C35.4309 30.0527 39.5547 27.3376 42.8375 25.3792C44.9465 24.121 44.9465 20.8791 42.8375 19.6209C39.5547 17.6624 35.4309 14.9473 32.7418 12.2582C30.0527 9.5691 27.3376 5.44534 25.3792 2.16254C24.121 0.0534866 20.8791 0.0534866 19.6209 2.16254C17.6624 5.44534 14.9473 9.5691 12.2582 12.2582Z" fill="white"/>
</svg>
